<?xml version="1.0" standalone="no"?>
<!DOCTYPE svg PUBLIC "-//W3C//DTD SVG 20010904//EN"
 "http://www.w3.org/TR/2001/REC-SVG-20010904/DTD/svg10.dtd">
<svg version="1.0" xmlns="http://www.w3.org/2000/svg"
 width="375.000000pt" height="375.000000pt" viewBox="0 0 375.000000 375.000000"
 preserveAspectRatio="xMidYMid meet">
<metadata>
Created by potrace 1.11, written by Peter Selinger 2001-2013
</metadata>
<g transform="translate(0.000000,375.000000) scale(0.100000,-0.100000)"
fill="#000000" stroke="none">
<path d="M2358 3095 c-2 -2 -39 -5 -82 -6 -44 -1 -100 -6 -125 -11 -25 -5 -59
-11 -76 -14 -16 -3 -48 -9 -70 -15 -22 -5 -51 -12 -64 -15 -39 -8 -242 -74
-281 -91 -213 -94 -417 -213 -565 -331 -206 -164 -519 -491 -705 -737 -191
-252 -318 -508 -375 -757 -17 -75 -14 -258 4 -320 39 -125 180 -165 361 -101
25 9 50 20 55 23 9 7 176 86 390 185 39 18 166 78 284 134 203 96 241 111 241
94 0 -4 -20 -64 -44 -133 -50 -139 -76 -235 -76 -274 0 -14 10 -34 22 -46 20
-19 34 -20 217 -20 153 1 200 4 215 15 10 7 32 53 50 101 17 48 38 91 47 97
11 7 82 -18 278 -102 l263 -111 409 0 409 0 16 24 c13 21 14 29 2 52 -11 25
-82 56 -626 279 -336 139 -615 254 -618 258 -8 8 36 155 50 166 12 10 153 81
266 134 41 19 120 56 175 82 55 25 150 70 210 98 242 113 634 313 729 371 118
72 238 167 296 234 150 173 145 394 -12 563 -67 72 -180 138 -262 155 -243 48
-495 19 -701 -80 -252 -121 -456 -273 -644 -481 -55 -62 -258 -335 -293 -395
-60 -104 -88 -160 -123 -245 -68 -166 -48 -146 -239 -238 -94 -45 -309 -151
-479 -234 -169 -84 -319 -156 -333 -159 -24 -6 -26 -5 -19 17 12 38 92 193
132 256 20 32 72 105 116 163 72 94 109 140 212 260 79 92 271 274 360 340
241 180 480 303 700 360 49 13 91 36 130 73 37 35 169 132 240 176 128 81 143
92 149 117 7 27 -6 59 -28 67 -8 3 -48 9 -88 12 -40 4 -78 8 -85 10 -6 2 -13
2 -15 0z m89 -48 c39 -3 76 -8 82 -11 18 -12 0 -36 -48 -64 -74 -43 -200 -131
-275 -191 -38 -31 -78 -63 -90 -72 -11 -9 -70 -31 -131 -48 -125 -35 -317
-126 -470 -223 -286 -181 -480 -368 -768 -740 -131 -170 -263 -410 -252 -458
16 -62 37 -57 315 81 233 116 480 236 655 319 44 21 88 47 98 58 10 11 40 72
67 136 89 210 181 357 376 599 140 174 339 346 520 448 270 152 484 202 737
170 158 -20 255 -67 344 -165 74 -82 98 -143 98 -251 0 -103 -23 -165 -89
-244 -51 -61 -184 -168 -291 -233 -104 -65 -787 -408 -810 -408 -2 0 -67 -31
-146 -69 -79 -37 -171 -80 -204 -96 -106 -48 -220 -107 -231 -118 -15 -15 -64
-165 -64 -194 0 -14 10 -28 28 -37 15 -7 293 -123 617 -256 325 -133 596 -247
602 -252 7 -6 10 -14 7 -19 -3 -5 -182 -9 -401 -9 l-395 0 -252 107 c-252 108
-302 122 -331 92 -8 -8 -28 -52 -45 -99 -17 -46 -34 -88 -38 -92 -5 -5 -94 -7
-198 -6 l-189 3 2 47 c0 27 25 116 58 213 46 135 55 171 47 190 -19 41 -44 36
-218 -47 -93 -44 -187 -88 -209 -98 -22 -10 -89 -42 -150 -70 -60 -29 -146
-69 -190 -90 -300 -141 -299 -140 -381 -142 -121 -3 -165 32 -185 146 -10 62
-8 208 4 262 66 284 239 595 501 899 164 191 224 254 377 400 358 342 724 528
1221 623 26 5 80 10 120 11 40 1 74 4 76 6 2 2 9 2 15 0 7 -2 44 -6 84 -8z"/>
<path d="M3035 2710 c-122 -30 -399 -187 -545 -309 -141 -117 -257 -235 -277
-279 -12 -30 -12 -37 2 -58 21 -33 61 -31 142 6 35 17 66 30 68 30 18 0 393
184 479 235 180 106 324 222 327 263 4 48 -3 69 -31 95 -25 23 -39 27 -83 26
-28 -1 -65 -4 -82 -9z m151 -55 c31 -43 -21 -103 -182 -211 -134 -89 -281
-166 -509 -269 -93 -42 -180 -81 -191 -86 -26 -13 -56 -9 -61 8 -5 13 123 145
232 241 120 106 339 242 496 307 71 30 93 35 143 32 43 -3 62 -8 72 -22z"/>
</g>
</svg>
